# xmcd
#
# Track frame offsets: 
#        150
#        4962
#        18589
#        32845
#        36609
#        48669
#        76224
#        79864
#        104144
#        120010
#        136089
#        140580
#        152570
#        154504
#        175188
#        187783
#        207470
#        221700
#
# Disc length: 3165 seconds
#
# Revision: 6
# Processed by: cddbd v1.5.2PL0 Copyright (c) Steve Scherf et al.
# Submitted via: ExactAudioCopy v1.3
#
DISCID=f20c5b12
DTITLE=Alicia Keys - Here (deluxe edition)
DYEAR=2016
DGENRE=R&B
TTITLE0=The beginning (interlude)
TTITLE1=The gospel
TTITLE2=Pawn it all
TTITLE3=Elaine Brown (interlude)
TTITLE4=Kill your mama
TTITLE5=She don't really care_1 luv
TTITLE6=Elevate (interlude)
TTITLE7=Illusion of bliss
TTITLE8=Blended family (what you do for love) (ft ASAP Rocky)
TTITLE9=Work on it
TTITLE10=Cocoa butter (Cross and Pic interlude)
TTITLE11=Girl can't be herself
TTITLE12=You glow (interlude)
TTITLE13=More than we know
TTITLE14=Where do we begin now
TTITLE15=Holy war
TTITLE16=Hallelujah (bonus track)
TTITLE17=In common (bonus track)
EXTD=YEAR: 2016
EXTT0=
EXTT1=
EXTT2=
EXTT3=
EXTT4=
EXTT5=
EXTT6=
EXTT7=
EXTT8=
EXTT9=
EXTT10=
EXTT11=
EXTT12=
EXTT13=
EXTT14=
EXTT15=
EXTT16=
EXTT17=
PLAYORDER=
